<svg width="3124" height="3463" viewBox="0 0 3124 3463" fill="none" xmlns="http://www.w3.org/2000/svg">
<g filter="url(#filter0_f)">
<path d="M1724.68 1165.73C1800.84 1100.34 1918.21 1158.36 1912.51 1258.58L1858.54 2206.94C1853.9 2288.41 1767.57 2338.69 1694.42 2302.53L1027.66 1972.92C954.509 1936.76 942.038 1837.64 1003.96 1784.48L1724.68 1165.73Z" stroke="#1A4894" stroke-opacity="0.3" stroke-width="294.442"/>
</g>
<g filter="url(#filter1_f)">
<path d="M1819.5 973.726C1895.67 908.311 2013.06 966.345 2007.34 1066.59L1933.32 2363.21C1928.67 2444.68 1842.35 2494.94 1769.2 2458.78L857.968 2008.32C784.82 1972.16 772.342 1873.05 834.244 1819.89L1819.5 973.726Z" stroke="#1A4894" stroke-opacity="0.2" stroke-width="294.442"/>
</g>
<defs>
<filter id="filter0_f" x="628.136" y="637.451" width="1954.06" height="2012.87" filterUnits="userSpaceOnUse" color-interpolation-filters="sRGB">
<feFlood flood-opacity="0" result="BackgroundImageFix"/>
<feBlend mode="normal" in="SourceGraphic" in2="BackgroundImageFix" result="shape"/>
<feGaussianBlur stdDeviation="50" result="effect1_foregroundBlur"/>
</filter>
<filter id="filter1_f" x="408.44" y="335.009" width="2440.83" height="2521.57" filterUnits="userSpaceOnUse" color-interpolation-filters="sRGB">
<feFlood flood-opacity="0" result="BackgroundImageFix"/>
<feBlend mode="normal" in="SourceGraphic" in2="BackgroundImageFix" result="shape"/>
<feGaussianBlur stdDeviation="75" result="effect1_foregroundBlur"/>
</filter>
</defs>
</svg>
