<svg width="24" height="24" viewBox="0 0 24 24" fill="none" xmlns="http://www.w3.org/2000/svg">
<path d="M15.6105 13.0856C16.7875 16.0634 17.6614 19.1292 18.2294 22.2612C19.0397 21.7672 19.797 21.1735 20.4853 20.4854C22.2731 18.6974 23.4269 16.4445 23.8345 13.9993C22.0781 13.2727 20.1546 12.8706 18.1388 12.8706C17.2771 12.8706 16.4326 12.9449 15.6105 13.0856V13.0856Z" fill="white"/>
<path d="M20.4954 3.52496C20.4919 3.52167 20.4886 3.51801 20.4853 3.51471C18.2186 1.24823 15.2053 0 12 0C10.7466 0 9.52258 0.191711 8.36115 0.559753C10.2228 2.89215 11.8605 5.38129 13.264 8.01196C15.908 6.88934 18.3435 5.36829 20.4954 3.52496Z" fill="white"/>
<path d="M21.4382 4.58716C19.1808 6.52606 16.6584 8.09729 13.9135 9.27155C14.3181 10.0862 14.7003 10.9138 15.061 11.7537C16.0682 11.562 17.096 11.4642 18.1388 11.4642C20.1586 11.4642 22.1232 11.8275 23.9874 12.5425C23.9954 12.3624 24 12.1816 24 12.0002C24 9.27704 23.0988 6.69287 21.4382 4.58716V4.58716Z" fill="white"/>
<path d="M4.61371 21.4595C6.71448 23.1067 9.28857 24.0001 12 24.0001C13.7234 24.0001 15.3911 23.6386 16.9173 22.9527C16.3453 19.6381 15.4294 16.44 14.2073 13.3962C9.96057 14.5553 6.46179 17.5439 4.61371 21.4595V21.4595Z" fill="white"/>
<path d="M11.7731 12.7496C12.3904 12.4885 13.0195 12.2673 13.6586 12.0853C13.3213 11.3129 12.9635 10.5516 12.587 9.80103C9.34515 11.0048 5.93628 11.6147 2.43457 11.6147C1.62103 11.6147 0.812805 11.5812 0.010437 11.5156C0.00402832 11.6766 0 11.8381 0 12.0001C0 15.2054 1.24823 18.2187 3.51471 20.4852C3.51544 20.486 3.51636 20.4867 3.51709 20.4874C4.30096 18.9241 5.32617 17.5032 6.57532 16.2538C8.07697 14.7524 9.82562 13.5734 11.7731 12.7496Z" fill="white"/>
<path d="M11.9293 8.53796C10.5053 5.9007 8.83923 3.41248 6.96149 1.10278C5.69604 1.6889 4.53021 2.49915 3.51471 3.51465C1.69904 5.33032 0.537598 7.62555 0.147217 10.1147C0.901611 10.1764 1.66443 10.2084 2.43457 10.2084C5.76746 10.2084 8.96539 9.61847 11.9293 8.53796Z" fill="white"/>
</svg>
