<svg width="25" height="24" viewBox="0 0 25 24" fill="none" xmlns="http://www.w3.org/2000/svg">
<g clip-path="url(#clip0)">
<path d="M12.2292 0.249756C5.47633 0.249756 0 5.64376 0 12.2978C0 17.6198 3.50412 22.1348 8.36585 23.7293C8.97738 23.8403 9.2006 23.4683 9.2006 23.1488C9.2006 22.8623 9.18989 22.1048 9.18378 21.0998C5.7821 21.8273 5.06354 19.4843 5.06354 19.4843C4.50857 18.0923 3.70592 17.7218 3.70592 17.7218C2.59445 16.9748 3.78848 16.9898 3.78848 16.9898C5.01614 17.0753 5.66132 18.2318 5.66132 18.2318C6.75291 20.0723 8.52485 19.5413 9.222 19.2323C9.33208 18.4538 9.64855 17.9228 9.99865 17.6213C7.28342 17.3168 4.42754 16.2833 4.42754 11.6678C4.42754 10.3523 4.90454 9.27676 5.68731 8.43376C5.56041 8.12926 5.14151 6.90376 5.80656 5.24626C5.80656 5.24626 6.83394 4.92226 9.17002 6.48076C10.1454 6.21376 11.1912 6.08026 12.2323 6.07576C13.2704 6.08176 14.3176 6.21376 15.2946 6.48226C17.6291 4.92376 18.655 5.24776 18.655 5.24776C19.3216 6.90676 18.9027 8.13076 18.7773 8.43526C19.5616 9.27826 20.034 10.3538 20.034 11.6693C20.034 16.2968 17.1751 17.3153 14.4507 17.6138C14.8894 17.9858 15.2808 18.7208 15.2808 19.8443C15.2808 21.4553 15.2655 22.7543 15.2655 23.1488C15.2655 23.4713 15.4857 23.8463 16.1064 23.7278C20.9605 22.1318 24.4615 17.6183 24.4615 12.2978C24.4615 5.64376 18.9852 0.249756 12.2292 0.249756Z" fill="white"/>
</g>
<defs>
<clipPath id="clip0">
<rect width="24.4615" height="24" fill="white"/>
</clipPath>
</defs>
</svg>
