<svg width="25" height="24" viewBox="0 0 25 24" fill="none" xmlns="http://www.w3.org/2000/svg">
<g clip-path="url(#clip0)">
<path d="M24.4556 24V23.999H24.4616V15.197C24.4616 10.891 23.5346 7.57397 18.5006 7.57397C16.0806 7.57397 14.4566 8.90198 13.7936 10.161H13.7236V7.97597H8.95056V23.999H13.9206V16.065C13.9206 13.976 14.3166 11.956 16.9036 11.956C19.4526 11.956 19.4906 14.34 19.4906 16.199V24H24.4556Z" fill="white"/>
<path d="M0.857544 7.97705H5.83354V24.0001H0.857544V7.97705Z" fill="white"/>
<path d="M3.34355 0C1.75255 0 0.461548 1.291 0.461548 2.882C0.461548 4.473 1.75255 5.791 3.34355 5.791C4.93455 5.791 6.22555 4.473 6.22555 2.882C6.22455 1.291 4.93355 0 3.34355 0V0Z" fill="white"/>
</g>
<defs>
<clipPath id="clip0">
<rect width="24" height="24" fill="white" transform="translate(0.461548)"/>
</clipPath>
</defs>
</svg>
