<svg width="59" height="40" viewBox="0 0 59 40" fill="none" xmlns="http://www.w3.org/2000/svg">
<g clip-path="url(#clip0)">
<path d="M3.99632 5.85097C4.42318 5.30635 4.97516 4.90157 5.65225 4.63662C6.34407 4.35695 7.13156 4.21711 8.01472 4.21711V7.99264C7.63202 7.94848 7.31555 7.9264 7.06532 7.9264C6.16743 7.9264 5.4609 8.16927 4.94572 8.65501C4.44526 9.14075 4.19503 9.88409 4.19503 10.885V16.3827H0V4.41582H3.99632V5.85097Z" fill="black"/>
<path d="M22.3556 0V16.3827H18.3593V15.1904C17.5792 16.1178 16.409 16.5814 14.8487 16.5814C13.7595 16.5814 12.7659 16.3312 11.868 15.8307C10.9702 15.3155 10.2563 14.5869 9.72637 13.6449C9.21119 12.7029 8.9536 11.6136 8.9536 10.3772C8.9536 9.14075 9.21119 8.05888 9.72637 7.13156C10.2563 6.18951 10.9702 5.46826 11.868 4.9678C12.7659 4.46734 13.7595 4.21711 14.8487 4.21711C16.2765 4.21711 17.3805 4.62926 18.1606 5.45354V0H22.3556ZM15.7319 13.2475C16.4531 13.2475 17.0493 12.9972 17.5203 12.4968C17.9913 11.9816 18.2268 11.2751 18.2268 10.3772C18.2268 9.49402 17.9913 8.80221 17.5203 8.30175C17.064 7.80129 16.4679 7.55106 15.7319 7.55106C14.9959 7.55106 14.3924 7.80129 13.9214 8.30175C13.4504 8.80221 13.2149 9.49402 13.2149 10.3772C13.2149 11.2751 13.4504 11.9816 13.9214 12.4968C14.3924 12.9972 14.9959 13.2475 15.7319 13.2475Z" fill="black"/>
<path d="M37.6618 4.41582L32.4953 16.8684C31.8918 18.3404 31.1558 19.3707 30.2874 19.9595C29.4189 20.563 28.3591 20.8648 27.108 20.8648C26.475 20.8648 25.8348 20.7617 25.1871 20.5557C24.5542 20.3643 24.039 20.1067 23.6416 19.7829L25.0988 16.8464C25.3343 17.0672 25.614 17.2364 25.9378 17.3542C26.2763 17.4867 26.6149 17.5529 26.9534 17.5529C27.3508 17.5529 27.6747 17.4719 27.9249 17.31C28.1899 17.1481 28.4106 16.8905 28.5873 16.5373L23.4649 4.41582H27.7704L30.7069 11.724L33.6655 4.41582H37.6618Z" fill="black"/>
<path d="M46.5402 4.21711C48.0269 4.21711 49.2191 4.65869 50.117 5.54186C51.0296 6.42502 51.4859 7.75713 51.4859 9.53818V16.3827H47.2909V10.2226C47.2909 8.58878 46.6359 7.77185 45.3258 7.77185C44.6046 7.77185 44.0232 8.00736 43.5816 8.47838C43.1547 8.9494 42.9413 9.65593 42.9413 10.598V16.3827H38.7463V4.41582H42.7426V5.71849C43.2136 5.23275 43.7729 4.86477 44.4206 4.61453C45.0682 4.34959 45.7748 4.21711 46.5402 4.21711Z" fill="black"/>
<path d="M55.886 16.5814C55.1795 16.5814 54.5834 16.3459 54.0976 15.8749C53.6119 15.4039 53.369 14.8077 53.369 14.0865C53.369 13.3505 53.6045 12.7544 54.0756 12.2981C54.5613 11.8418 55.1648 11.6136 55.886 11.6136C56.622 11.6136 57.2255 11.8418 57.6965 12.2981C58.1675 12.7544 58.4031 13.3505 58.4031 14.0865C58.4031 14.8077 58.1602 15.4039 57.6744 15.8749C57.2034 16.3459 56.6073 16.5814 55.886 16.5814Z" fill="black"/>
<path d="M13.402 19.1352V35.5179H9.4057V34.3257C8.62558 35.253 7.45538 35.7167 5.89512 35.7167C4.80589 35.7167 3.81233 35.4664 2.91444 34.966C2.01656 34.4508 1.30267 33.7222 0.772769 32.7801C0.25759 31.8381 0 30.7488 0 29.5124C0 28.276 0.25759 27.1941 0.772769 26.2668C1.30267 25.3247 2.01656 24.6035 2.91444 24.103C3.81233 23.6026 4.80589 23.3523 5.89512 23.3523C7.32291 23.3523 8.42686 23.7645 9.20699 24.5888V19.1352H13.402ZM6.77829 32.3827C7.49954 32.3827 8.09568 32.1325 8.5667 31.632C9.03772 31.1168 9.27323 30.4103 9.27323 29.5124C9.27323 28.6293 9.03772 27.9374 8.5667 27.437C8.1104 26.9365 7.51426 26.6863 6.77829 26.6863C6.04232 26.6863 5.43882 26.9365 4.9678 27.437C4.49678 27.9374 4.26127 28.6293 4.26127 29.5124C4.26127 30.4103 4.49678 31.1168 4.9678 31.632C5.43882 32.1325 6.04232 32.3827 6.77829 32.3827Z" fill="black"/>
<path d="M20.4506 35.7167C19.4497 35.7167 18.4635 35.6063 17.492 35.3855C16.5205 35.15 15.7404 34.8482 15.1516 34.4802L16.4101 31.6099C16.9548 31.9485 17.6024 32.2208 18.3531 32.4269C19.1038 32.6182 19.8471 32.7139 20.5831 32.7139C21.2602 32.7139 21.7386 32.6477 22.0182 32.5152C22.3126 32.368 22.4598 32.1619 22.4598 31.897C22.4598 31.632 22.2832 31.448 21.9299 31.345C21.5914 31.2272 21.0467 31.1168 20.2961 31.0138C19.3393 30.896 18.5224 30.7415 17.8453 30.5501C17.1829 30.3588 16.6088 30.0055 16.1231 29.4903C15.6374 28.9752 15.3945 28.2539 15.3945 27.3266C15.3945 26.5612 15.6226 25.8841 16.0789 25.2953C16.5352 24.6918 17.1976 24.2208 18.0661 23.8822C18.9492 23.529 20.0017 23.3523 21.2234 23.3523C22.0918 23.3523 22.9529 23.4407 23.8066 23.6173C24.6604 23.7939 25.3743 24.0442 25.9483 24.368L24.6898 27.2162C23.63 26.6274 22.4819 26.333 21.2455 26.333C20.5831 26.333 20.0973 26.414 19.7882 26.5759C19.4791 26.7231 19.3246 26.9218 19.3246 27.172C19.3246 27.4517 19.4938 27.6504 19.8324 27.7682C20.1709 27.8712 20.7303 27.9816 21.5104 28.0994C22.4966 28.2465 23.3135 28.4158 23.9612 28.6072C24.6088 28.7985 25.1682 29.1518 25.6392 29.667C26.1249 30.1674 26.3678 30.874 26.3678 31.7866C26.3678 32.5373 26.1397 33.2144 25.6834 33.8178C25.2271 34.4066 24.55 34.8703 23.6521 35.2088C22.7689 35.5474 21.7018 35.7167 20.4506 35.7167Z" fill="black"/>
<path d="M41.0477 23.5511V33.3321C41.0477 35.5547 40.4442 37.218 39.2372 38.322C38.0302 39.4407 36.2933 40 34.0265 40C32.849 40 31.745 39.8675 30.7146 39.6026C29.6843 39.3376 28.8085 38.9476 28.0872 38.4324L29.6107 35.4959C30.0964 35.8933 30.7073 36.2024 31.4432 36.4232C32.1939 36.6587 32.9299 36.7765 33.6512 36.7765C34.7551 36.7765 35.5647 36.5336 36.0799 36.0478C36.595 35.5621 36.8526 34.8408 36.8526 33.8841V33.4867C36.0431 34.4287 34.8582 34.8997 33.2979 34.8997C32.2381 34.8997 31.2593 34.6642 30.3614 34.1932C29.4635 33.7075 28.7496 33.0304 28.2197 32.1619C27.6898 31.2787 27.4249 30.2631 27.4249 29.115C27.4249 27.9816 27.6898 26.9807 28.2197 26.1122C28.7496 25.2291 29.4635 24.552 30.3614 24.081C31.2593 23.5952 32.2381 23.3523 33.2979 23.3523C35.0053 23.3523 36.2565 23.9043 37.0513 25.0083V23.5511H41.0477ZM34.2915 31.5658C35.0421 31.5658 35.6604 31.3376 36.1461 30.8813C36.6466 30.425 36.8968 29.8362 36.8968 29.115C36.8968 28.3937 36.6539 27.8123 36.1682 27.3707C35.6824 26.9144 35.0569 26.6863 34.2915 26.6863C33.526 26.6863 32.8931 26.9144 32.3927 27.3707C31.9069 27.8123 31.664 28.3937 31.664 29.115C31.664 29.8362 31.9143 30.425 32.4147 30.8813C32.9152 31.3376 33.5408 31.5658 34.2915 31.5658Z" fill="black"/>
<path d="M51.537 23.3523C53.0236 23.3523 54.2159 23.7939 55.1138 24.6771C56.0264 25.5603 56.4827 26.8924 56.4827 28.6734V35.5179H52.2877V29.3579C52.2877 27.724 51.6326 26.9071 50.3226 26.9071C49.6014 26.9071 49.02 27.1426 48.5784 27.6136C48.1515 28.0846 47.9381 28.7912 47.9381 29.7332V35.5179H43.743V23.5511H47.7394V24.8537C48.2104 24.368 48.7697 24 49.4174 23.7498C50.065 23.4848 50.7716 23.3523 51.537 23.3523Z" fill="black"/>
</g>
<defs>
<clipPath id="clip0">
<rect width="58.4031" height="40" fill="white"/>
</clipPath>
</defs>
</svg>
