<svg width="156" height="32" viewBox="0 0 156 32" fill="none" xmlns="http://www.w3.org/2000/svg">
<path d="M5.24195 9.05C5.84195 8.13 6.59195 7.41 7.49195 6.89C8.39195 6.35 9.39195 6.08 10.492 6.08V11.51H9.08195C7.80195 11.51 6.84195 11.79 6.20195 12.35C5.56195 12.89 5.24195 13.85 5.24195 15.23V23H0.111953V6.26H5.24195V9.05ZM11.924 14.6C11.924 12.88 12.244 11.37 12.884 10.07C13.544 8.77 14.434 7.77 15.554 7.07C16.674 6.37 17.924 6.02 19.304 6.02C20.404 6.02 21.404 6.25 22.304 6.71C23.224 7.17 23.944 7.79 24.464 8.57V0.8H29.594V23H24.464V20.6C23.984 21.4 23.294 22.04 22.394 22.52C21.514 23 20.484 23.24 19.304 23.24C17.924 23.24 16.674 22.89 15.554 22.19C14.434 21.47 13.544 20.46 12.884 19.16C12.244 17.84 11.924 16.32 11.924 14.6ZM24.464 14.63C24.464 13.35 24.104 12.34 23.384 11.6C22.684 10.86 21.824 10.49 20.804 10.49C19.784 10.49 18.914 10.86 18.194 11.6C17.494 12.32 17.144 13.32 17.144 14.6C17.144 15.88 17.494 16.9 18.194 17.66C18.914 18.4 19.784 18.77 20.804 18.77C21.824 18.77 22.684 18.4 23.384 17.66C24.104 16.92 24.464 15.91 24.464 14.63ZM50.4053 6.26L39.9053 30.95H34.3853L38.2253 22.43L31.4153 6.26H37.1453L41.0153 16.73L44.8553 6.26H50.4053ZM62.4604 6.08C64.4204 6.08 65.9804 6.72 67.1404 8C68.3204 9.26 68.9104 11 68.9104 13.22V23H63.8104V13.91C63.8104 12.79 63.5204 11.92 62.9404 11.3C62.3604 10.68 61.5804 10.37 60.6004 10.37C59.6204 10.37 58.8404 10.68 58.2604 11.3C57.6804 11.92 57.3904 12.79 57.3904 13.91V23H52.2604V6.26H57.3904V8.48C57.9104 7.74 58.6104 7.16 59.4904 6.74C60.3704 6.3 61.3604 6.08 62.4604 6.08ZM74.8752 23.24C73.9752 23.24 73.2352 22.98 72.6552 22.46C72.0952 21.92 71.8152 21.26 71.8152 20.48C71.8152 19.68 72.0952 19.01 72.6552 18.47C73.2352 17.93 73.9752 17.66 74.8752 17.66C75.7552 17.66 76.4752 17.93 77.0352 18.47C77.6152 19.01 77.9052 19.68 77.9052 20.48C77.9052 21.26 77.6152 21.92 77.0352 22.46C76.4752 22.98 75.7552 23.24 74.8752 23.24ZM79.922 14.6C79.922 12.88 80.242 11.37 80.882 10.07C81.542 8.77 82.432 7.77 83.552 7.07C84.672 6.37 85.922 6.02 87.302 6.02C88.402 6.02 89.402 6.25 90.302 6.71C91.222 7.17 91.942 7.79 92.462 8.57V0.8H97.592V23H92.462V20.6C91.982 21.4 91.292 22.04 90.392 22.52C89.512 23 88.482 23.24 87.302 23.24C85.922 23.24 84.672 22.89 83.552 22.19C82.432 21.47 81.542 20.46 80.882 19.16C80.242 17.84 79.922 16.32 79.922 14.6ZM92.462 14.63C92.462 13.35 92.102 12.34 91.382 11.6C90.682 10.86 89.822 10.49 88.802 10.49C87.782 10.49 86.912 10.86 86.192 11.6C85.492 12.32 85.142 13.32 85.142 14.6C85.142 15.88 85.492 16.9 86.192 17.66C86.912 18.4 87.782 18.77 88.802 18.77C89.822 18.77 90.682 18.4 91.382 17.66C92.102 16.92 92.462 15.91 92.462 14.63ZM108.113 23.24C106.653 23.24 105.353 22.99 104.213 22.49C103.073 21.99 102.173 21.31 101.513 20.45C100.853 19.57 100.483 18.59 100.403 17.51H105.473C105.533 18.09 105.803 18.56 106.283 18.92C106.763 19.28 107.353 19.46 108.053 19.46C108.693 19.46 109.183 19.34 109.523 19.1C109.883 18.84 110.063 18.51 110.063 18.11C110.063 17.63 109.813 17.28 109.313 17.06C108.813 16.82 108.003 16.56 106.883 16.28C105.683 16 104.683 15.71 103.883 15.41C103.083 15.09 102.393 14.6 101.813 13.94C101.233 13.26 100.943 12.35 100.943 11.21C100.943 10.25 101.203 9.38 101.723 8.6C102.263 7.8 103.043 7.17 104.063 6.71C105.103 6.25 106.333 6.02 107.753 6.02C109.853 6.02 111.503 6.54 112.703 7.58C113.923 8.62 114.623 10 114.803 11.72H110.063C109.983 11.14 109.723 10.68 109.283 10.34C108.863 10 108.303 9.83 107.603 9.83C107.003 9.83 106.543 9.95 106.223 10.19C105.903 10.41 105.743 10.72 105.743 11.12C105.743 11.6 105.993 11.96 106.493 12.2C107.013 12.44 107.813 12.68 108.893 12.92C110.133 13.24 111.143 13.56 111.923 13.88C112.703 14.18 113.383 14.68 113.963 15.38C114.563 16.06 114.873 16.98 114.893 18.14C114.893 19.12 114.613 20 114.053 20.78C113.513 21.54 112.723 22.14 111.683 22.58C110.663 23.02 109.473 23.24 108.113 23.24ZM124.392 6.02C125.572 6.02 126.602 6.26 127.482 6.74C128.382 7.22 129.072 7.85 129.552 8.63V6.26H134.682V22.97C134.682 24.51 134.372 25.9 133.752 27.14C133.152 28.4 132.222 29.4 130.962 30.14C129.722 30.88 128.172 31.25 126.312 31.25C123.832 31.25 121.822 30.66 120.282 29.48C118.742 28.32 117.862 26.74 117.642 24.74H122.712C122.872 25.38 123.252 25.88 123.852 26.24C124.452 26.62 125.192 26.81 126.072 26.81C127.132 26.81 127.972 26.5 128.592 25.88C129.232 25.28 129.552 24.31 129.552 22.97V20.6C129.052 21.38 128.362 22.02 127.482 22.52C126.602 23 125.572 23.24 124.392 23.24C123.012 23.24 121.762 22.89 120.642 22.19C119.522 21.47 118.632 20.46 117.972 19.16C117.332 17.84 117.012 16.32 117.012 14.6C117.012 12.88 117.332 11.37 117.972 10.07C118.632 8.77 119.522 7.77 120.642 7.07C121.762 6.37 123.012 6.02 124.392 6.02ZM129.552 14.63C129.552 13.35 129.192 12.34 128.472 11.6C127.772 10.86 126.912 10.49 125.892 10.49C124.872 10.49 124.002 10.86 123.282 11.6C122.582 12.32 122.232 13.32 122.232 14.6C122.232 15.88 122.582 16.9 123.282 17.66C124.002 18.4 124.872 18.77 125.892 18.77C126.912 18.77 127.772 18.4 128.472 17.66C129.192 16.92 129.552 15.91 129.552 14.63ZM148.593 6.08C150.553 6.08 152.113 6.72 153.273 8C154.453 9.26 155.043 11 155.043 13.22V23H149.943V13.91C149.943 12.79 149.653 11.92 149.073 11.3C148.493 10.68 147.713 10.37 146.733 10.37C145.753 10.37 144.973 10.68 144.393 11.3C143.813 11.92 143.523 12.79 143.523 13.91V23H138.393V6.26H143.523V8.48C144.043 7.74 144.743 7.16 145.623 6.74C146.503 6.3 147.493 6.08 148.593 6.08Z" fill="black"/>
</svg>
