<svg width="25" height="24" viewBox="0 0 25 24" fill="none" xmlns="http://www.w3.org/2000/svg">
<g clip-path="url(#clip0)">
<path d="M24.4615 4.5585C23.569 4.95 22.618 5.2095 21.6265 5.3355C22.6465 4.7265 23.425 3.7695 23.791 2.616C22.84 3.183 21.79 3.5835 20.671 3.807C19.768 2.8455 18.481 2.25 17.077 2.25C14.353 2.25 12.16 4.461 12.16 7.1715C12.16 7.5615 12.193 7.9365 12.274 8.2935C8.18355 8.094 4.56405 6.1335 2.13255 3.147C1.70805 3.8835 1.45905 4.7265 1.45905 5.634C1.45905 7.338 2.33655 8.8485 3.64455 9.723C2.85405 9.708 2.07855 9.4785 1.42155 9.117C1.42155 9.132 1.42155 9.1515 1.42155 9.171C1.42155 11.562 3.12705 13.548 5.36355 14.0055C4.96305 14.115 4.52655 14.1675 4.07355 14.1675C3.75855 14.1675 3.44055 14.1495 3.14205 14.0835C3.77955 16.032 5.58855 17.4645 7.73955 17.511C6.06555 18.8205 3.94005 19.6095 1.63905 19.6095C1.23555 19.6095 0.848548 19.5915 0.461548 19.542C2.64105 20.9475 5.22405 21.75 8.00955 21.75C17.0635 21.75 22.0135 14.25 22.0135 7.749C22.0135 7.5315 22.006 7.3215 21.9955 7.113C22.972 6.42 23.7925 5.5545 24.4615 4.5585Z" fill="white"/>
</g>
<defs>
<clipPath id="clip0">
<rect width="24" height="24" fill="white" transform="translate(0.461548)"/>
</clipPath>
</defs>
</svg>
